PathFileType	4	(X/Y/Z)	/Users/itak/Documents/Research/Walk-IL/dataset/trc/00516_00183.trc
DataRate	CameraRate	NumFrames	NumMarkers	Units	OrigDataRate	OrigDataStartFrame	OrigNumFrames
100.000000	100.000000	4	54	mm	100.000000	382	437
Frame#	Time	RPSI			LPSI			L3			STRN			T10			C7			CLAV			RBAK			LBAK			LSHO			LUPA			LAEL			LAOL			LWTS			LWPS			LFRA			LHPS			LHTS			RSHO			RUPA			RAEL			RAOL			RWTS			RWPS			RFRA			RIFD			RHTS			RHPS			RBHD			LFHD			RFHD			LBHD			LHIP			RHIP			RASI			LASI			LKNE			LTHI			LANK			LTIP			LTOE			LMT1			LMT5			LHEE			RKNE			RTHI			RANK			RTIP			RTOE			RMT1			RMT5			RHEE			LIFD			*53			
		X1	Y1	Z1	X2	Y2	Z2	X3	Y3	Z3	X4	Y4	Z4	X5	Y5	Z5	X6	Y6	Z6	X7	Y7	Z7	X8	Y8	Z8	X9	Y9	Z9	X10	Y10	Z10	X11	Y11	Z11	X12	Y12	Z12	X13	Y13	Z13	X14	Y14	Z14	X15	Y15	Z15	X16	Y16	Z16	X17	Y17	Z17	X18	Y18	Z18	X19	Y19	Z19	X20	Y20	Z20	X21	Y21	Z21	X22	Y22	Z22	X23	Y23	Z23	X24	Y24	Z24	X25	Y25	Z25	X26	Y26	Z26	X27	Y27	Z27	X28	Y28	Z28	X29	Y29	Z29	X30	Y30	Z30	X31	Y31	Z31	X32	Y32	Z32	X33	Y33	Z33	X34	Y34	Z34	X35	Y35	Z35	X36	Y36	Z36	X37	Y37	Z37	X38	Y38	Z38	X39	Y39	Z39	X40	Y40	Z40	X41	Y41	Z41	X42	Y42	Z42	X43	Y43	Z43	X44	Y44	Z44	X45	Y45	Z45	X46	Y46	Z46	X47	Y47	Z47	X48	Y48	Z48	X49	Y49	Z49	X50	Y50	Z50	X51	Y51	Z51	X52	Y52	Z52	X53	Y53	Z53	X54	Y54	Z54	

383	3.82	1122.063842773438	921.9840698242188	187.9049072265625	1239.596435546875	926.46240234375	148.2296905517578	1171.873046875	990.9960327148438	167.8220825195312	1252.939086914062	1172.33154296875	351.0993041992188	1149.914184570312	1092.375854492188	151.1443023681641	1148.2822265625	1324.51220703125	178.4899291992188	1229.187133789062	1263.86083984375	314.4882202148438	1058.718383789062	1195.000122070312	184.0527648925781	1217.238037109375	1270.676879882812	117.741813659668	1322.870849609375	1329.891845703125	160.45947265625	1377.859741210938	1206.792724609375	124.8914642333984	1419.936645507812	1000.018005371094	119.1606903076172	1323.090209960938	984.0880126953125	102.4081649780273	1454.562377929688	813.0526123046875	211.5833740234375	1437.676635742188	775.1004028320312	126.7178955078125	1438.0595703125	914.6917114257812	131.6348724365234	1454.690063476562	723.7855224609375	148.5310363769531	1480.651977539062	737.757568359375	206.7366027832031	1044.80419921875	1316.622802734375	299.4840698242188	994.6312255859375	1244.69775390625	319.291015625	982.5485229492188	978.7100830078125	370.7718811035156	996.541748046875	955.93017578125	310.1095886230469	1065.893310546875	784.4068603515625	462.7363891601562	993.501220703125	755.464599609375	416.2097778320312	981.8313598632812	924.6296997070312	381.93359375	1060.820556640625	626.7606201171875	480.7295837402344	1048.338134765625	695.529052734375	494.1646728515625	1000.998718261719	689.47412109375	442.7540893554688	1082.742553710938	1476.321166992188	251.6829223632812	1263.474731445312	1562.586181640625	253.5083618164062	1160.146728515625	1561.917114257812	328.6333312988281	1204.10693359375	1470.199829101562	148.3836669921875	1401.9482421875	867.2192993164062	213.64306640625	1038.791381835938	821.49755859375	328.5642395019531	1131.537231445312	873.5074462890625	401.1403503417969	1358.615600585938	904.4008178710938	319.7316589355469	1409.616455078125	473.42431640625	376.2235107421875	1419.359741210938	620.0790405273438	318.9781799316406	1425.328002929688	33.67407989501953	304.9107055664062	1424.671752929688	321.4730834960938	367.0513305664062	1394.575805664062	24.66794967651367	512.21240234375	1353.270751953125	32.48859786987305	437.8161315917969	1452.487548828125	26.91265296936035	411.5596923828125	1357.732666015625	28.55692100524902	268.2061157226562	1085.681518554688	438.824462890625	342.62841796875	1058.002319335938	693.716796875	359.8745727539062	924.8184814453125	184.1644439697266	38.23915100097656	1057.684326171875	324.1484069824219	271.2130432128906	1014.853637695312	32.85447692871094	123.2846908569336	1029.0048828125	78.80579376220703	68.82865142822266	939.5193481445312	93.85564422607422	99.78633117675781	950.0723266601562	218.5362243652344	-16.49234580993652	1461.131225585938	657.5986938476562	222.4444122314453	nan	nan	nan	
384	3.83	1127.990356445312	923.7678833007812	191.3260803222656	1245.703857421875	928.7069091796875	152.8534088134766	1178.294311523438	993.2993774414062	171.7156524658203	1257.7939453125	1173.910522460938	356.8249816894531	1156.873901367188	1094.857421875	155.2351226806641	1155.415405273438	1326.852905273438	183.4478912353516	1234.51513671875	1265.527587890625	320.1656494140625	1065.550659179688	1197.5224609375	187.6106872558594	1225.034545898438	1273.10302734375	123.3318481445312	1330.246215820312	1331.97412109375	167.6325531005859	1386.2216796875	1208.967895507812	132.9990386962891	1429.553466796875	1002.370544433594	128.5269470214844	1333.197875976562	985.9306640625	109.2644653320312	1462.924072265625	816.163818359375	222.4474334716797	1448.518188476562	777.7349853515625	137.3630828857422	1447.809814453125	917.1528930664062	141.7097473144531	1465.56982421875	726.6871948242188	159.8186340332031	1489.941040039062	741.20654296875	218.5526428222656	1050.583862304688	1318.792602539062	303.2723999023438	1000.023132324219	1247.002075195312	322.3025817871094	986.2002563476562	980.8616333007812	372.0611267089844	1001.284912109375	958.4276123046875	311.5359191894531	1065.335327148438	783.9169921875	463.1614990234375	994.344482421875	756.8773193359375	413.5415649414062	984.9324340820312	926.707763671875	382.6670227050781	1057.835693359375	625.8125	477.3880004882812	1045.710327148438	694.4730224609375	491.9635009765625	1000.05712890625	690.2298583984375	438.8066711425781	1088.884887695312	1477.962158203125	256.2284545898438	1269.504028320312	1564.681640625	258.5086059570312	1165.727905273438	1564.287475585938	333.1642456054688	1210.903686523438	1471.59326171875	153.6366119384766	1407.644287109375	868.9759521484375	219.5703277587891	1043.484008789062	823.3677368164062	331.4511108398438	1135.557250976562	875.6033935546875	404.7772216796875	1363.372192382812	905.9044799804688	325.3693237304688	1411.922119140625	473.4007568359375	378.2578430175781	1423.046142578125	621.0908813476562	323.4152526855469	1425.363403320312	33.70586013793945	304.9412536621094	1426.235107421875	321.1583862304688	368.174560546875	1394.550048828125	24.64974975585938	512.1966552734375	1353.302734375	32.48252105712891	437.8788757324219	1452.480346679688	26.90932273864746	411.5636901855469	1357.817504882812	28.66754150390625	268.1382446289062	1092.586547851562	441.2128601074219	353.2139282226562	1062.914184570312	696.1126098632812	364.5611877441406	937.6678466796875	188.7233276367188	45.44435501098633	1065.322509765625	327.5216369628906	281.8429870605469	1014.800415039062	35.7791862487793	141.7986602783203	1034.312744140625	79.29632568359375	86.17763519287109	944.2266845703125	101.1532745361328	111.5048141479492	966.8222045898438	219.3464660644531	-9.373971939086914	1470.942993164062	660.9110107421875	234.1729583740234	nan	nan	nan	
385	3.84	1133.774536132812	925.7689208984375	194.6438446044922	1251.730224609375	930.8860473632812	157.3044891357422	1184.59521484375	995.6865844726562	175.3970642089844	1262.416259765625	1175.609741210938	362.3941650390625	1163.666625976562	1097.409301757812	159.1717529296875	1162.295288085938	1329.276245117188	188.2504272460938	1239.584350585938	1267.315185546875	325.6905212402344	1072.2021484375	1200.096069335938	190.998291015625	1232.55810546875	1275.61328125	128.7842407226562	1337.317993164062	1334.184814453125	174.643798828125	1394.27685546875	1211.27880859375	140.9639892578125	1438.885498046875	1004.865417480469	137.8677520751953	1343.074096679688	987.9015502929688	116.1863555908203	1470.97119140625	819.409423828125	233.2444000244141	1459.061401367188	780.5379638671875	147.9827728271484	1457.249877929688	919.7670288085938	151.77783203125	1476.178955078125	729.7673950195312	171.0707550048828	1498.94189453125	744.831298828125	230.2955627441406	1056.143432617188	1321.012451171875	306.8970031738281	1005.14990234375	1249.3623046875	325.0761108398438	989.5604248046875	983.0975341796875	373.2221069335938	1005.6103515625	960.9746704101562	312.8079528808594	1064.92578125	783.8232421875	463.3529663085938	995.3383178710938	758.5074462890625	411.0286865234375	987.7737426757812	928.8702392578125	383.2564697265625	1055.555541992188	625.3681030273438	473.9701843261719	1043.635131835938	693.87158203125	489.66015625	999.5452270507812	691.2849731445312	435.04638671875	1094.825561523438	1479.797119140625	260.6930541992188	1275.4267578125	1566.7998046875	263.4567260742188	1171.2041015625	1566.715454101562	337.6605529785156	1217.490600585938	1473.138305664062	158.7800903320312	1413.086669921875	870.66162109375	225.2946014404297	1047.925659179688	825.6265869140625	334.3064880371094	1139.46435546875	877.9600219726562	408.3119812011719	1367.979736328125	907.48095703125	330.8092346191406	1414.046630859375	473.4034729003906	379.9906005859375	1426.450317382812	622.0394287109375	327.5176086425781	1425.36328125	33.76327514648438	304.9778442382812	1427.632202148438	320.9049377441406	369.06201171875	1394.519775390625	24.62383651733398	512.1863403320312	1353.321655273438	32.45373916625977	437.9285888671875	1452.453125	26.90605163574219	411.5708618164062	1357.864013671875	28.78730392456055	268.0782775878906	1098.989013671875	444.1590881347656	363.05126953125	1067.514404296875	698.7966918945312	368.9420776367188	950.9197387695312	191.4037475585938	53.2454948425293	1072.429809570312	331.1346740722656	292.0110168457031	1015.748657226562	38.88105773925781	160.9635009765625	1040.151245117188	79.19731140136719	104.2629318237305	949.8857421875	107.3000946044922	123.9813919067383	983.7682495117188	218.0976104736328	-1.593483686447144	1480.53271484375	664.3907470703125	245.842529296875	nan	nan	nan	
386	3.85	1139.401000976562	927.9439697265625	197.8908081054688	1257.625122070312	933.003173828125	161.6263122558594	1190.77490234375	998.14501953125	178.9176483154297	1266.846557617188	1177.418090820312	367.7921447753906	1170.291259765625	1099.991943359375	163.0155029296875	1168.925903320312	1331.754516601562	192.8998260498047	1244.43603515625	1269.21533203125	331.0580749511719	1078.676879882812	1202.694702148438	194.24609375	1239.804809570312	1278.176391601562	134.0991363525391	1344.082641601562	1336.512329101562	181.4640045166016	1402.011840820312	1213.716918945312	148.7462768554688	1447.890258789062	1007.491943359375	147.1704254150391	1352.671508789062	989.9951171875	123.1858520507812	1478.712768554688	822.7727661132812	243.9523315429688	1469.255493164062	783.4970703125	158.5642395019531	1466.346313476562	922.5328369140625	161.8216400146484	1486.463134765625	733.0106811523438	182.2595062255859	1507.639404296875	748.6002807617188	241.9300842285156	1061.499877929688	1323.26611328125	310.372802734375	1010.045593261719	1251.7666015625	327.6423645019531	992.6491088867188	985.3970947265625	374.2014770507812	1009.540466308594	963.5684204101562	313.8814086914062	1064.7119140625	784.1158447265625	463.3263854980469	996.4396362304688	760.2976684570312	408.7178344726562	990.36279296875	931.0956420898438	383.6662292480469	1054.018676757812	625.3954467773438	470.6056518554688	1042.156372070312	693.7086791992188	487.3508911132812	999.4367065429688	692.5888061523438	431.5814514160156	1100.567260742188	1481.802612304688	265.0660400390625	1281.228637695312	1568.930053710938	268.3580322265625	1176.568603515625	1569.16943359375	342.120849609375	1223.856567382812	1474.826293945312	163.8069763183594	1418.281494140625	872.2620239257812	230.8118743896484	1052.181274414062	828.2153930664062	337.16796875	1143.311889648438	880.5338745117188	411.7504577636719	1372.486450195312	909.1173095703125	336.0545349121094	1416.041381835938	473.4261474609375	381.4419555664062	1429.59765625	622.892578125	331.2485046386719	1425.34130859375	33.83645629882812	305.0205078125	1428.897216796875	320.6974487304688	369.7430114746094	1394.487548828125	24.59562873840332	512.1824340820312	1353.32958984375	32.40824890136719	437.9653625488281	1452.4111328125	26.9058780670166	411.5810852050781	1357.876831054688	28.91116333007812	268.0285949707031	1104.835693359375	447.5228576660156	372.1263427734375	1071.829711914062	701.6963500976562	373.0300598144531	964.2749633789062	192.0507659912109	61.78789901733398	1078.958618164062	334.8651123046875	301.6874389648438	1018.127258300781	41.79737091064453	180.3278198242188	1046.74169921875	78.51523590087891	122.7049560546875	956.5958862304688	111.8352203369141	136.9924468994141	1000.449768066406	214.9297180175781	7.050317287445068	1489.864135742188	668.0111083984375	257.420654296875	nan	nan	nan	
